<svg viewBox="0 0 24 24" xmlns="http://www.w3.org/2000/svg">
    <title>Pijl omhoog</title>
    <path d="M24,12.663c0,0.523 -0.19,0.985 -0.57,1.386l-1.155,1.155c-0.391,0.39 -0.858,0.586 -1.402,0.586c-0.555,0 -1.017,-0.196 -1.386,-0.586l-4.529,-4.513l0,10.844c0,0.534 -0.193,0.968 -0.578,1.302c-0.385,0.334 -0.85,0.5 -1.394,0.5l-1.972,0c-0.544,0 -1.009,-0.166 -1.394,-0.5c-0.385,-0.334 -0.578,-0.768 -0.578,-1.302l0,-10.844l-4.529,4.513c-0.369,0.39 -0.831,0.586 -1.386,0.586c-0.555,0 -1.017,-0.196 -1.386,-0.586l-1.155,-1.155c-0.391,-0.391 -0.586,-0.853 -0.586,-1.386c0,-0.545 0.195,-1.012 0.586,-1.402l10.028,-10.029c0.359,-0.38 0.821,-0.569 1.386,-0.569c0.555,0 1.022,0.189 1.402,0.569l10.028,10.029c0.38,0.4 0.57,0.867 0.57,1.402Z"/>
</svg>