<svg viewBox="0 0 24 24" xmlns="http://www.w3.org/2000/svg">
    <title>Camera</title>
    <path d="M12,10c0.992,0 1.84,0.352 2.544,1.056c0.704,0.704 1.056,1.552 1.056,2.544c0,0.992 -0.352,1.84 -1.056,2.544c-0.704,0.704 -1.552,1.056 -2.544,1.056c-0.992,0 -1.84,-0.352 -2.544,-1.056c-0.704,-0.704 -1.056,-1.552 -1.056,-2.544c0,-0.992 0.352,-1.84 1.056,-2.544c0.704,-0.704 1.552,-1.056 2.544,-1.056Zm8.8,-5.2c0.883,0 1.637,0.313 2.262,0.938c0.625,0.625 0.938,1.379 0.938,2.262l0,11.2c0,0.883 -0.313,1.637 -0.938,2.262c-0.625,0.625 -1.379,0.938 -2.262,0.938l-17.6,0c-0.883,0 -1.637,-0.313 -2.263,-0.938c-0.625,-0.625 -0.937,-1.379 -0.937,-2.262l0,-11.2c0,-0.883 0.313,-1.638 0.938,-2.263c0.625,-0.625 1.379,-0.937 2.262,-0.937l2.8,0l0.637,-1.7c0.159,-0.408 0.448,-0.76 0.869,-1.056c0.421,-0.296 0.852,-0.444 1.294,-0.444l6.4,0c0.442,0 0.873,0.148 1.294,0.444c0.421,0.296 0.71,0.648 0.869,1.056l0.637,1.7l2.8,0Zm-8.8,14.4c1.542,0 2.86,-0.548 3.956,-1.644c1.096,-1.096 1.644,-2.414 1.644,-3.956c0,-1.542 -0.548,-2.86 -1.644,-3.956c-1.096,-1.096 -2.414,-1.644 -3.956,-1.644c-1.542,0 -2.86,0.548 -3.956,1.644c-1.096,1.096 -1.644,2.414 -1.644,3.956c0,1.542 0.548,2.86 1.644,3.956c1.096,1.096 2.414,1.644 3.956,1.644Z"/>
</svg>