<svg viewBox="0 0 24 24" xmlns="http://www.w3.org/2000/svg">
    <title>Winkelwagen</title>
    <path d="M19.2,19.201c-1.319,0 -2.402,1.079 -2.402,2.397c0,1.325 1.083,2.402 2.402,2.402c1.318,0 2.397,-1.077 2.397,-2.402c0,-1.318 -1.079,-2.397 -2.397,-2.397Zm-19.2,-19.201l0,2.404l2.403,0l4.315,9.117l-1.681,2.882c-0.117,0.357 -0.239,0.838 -0.239,1.195c0,1.325 1.083,2.402 2.402,2.402l14.397,0l0,-2.402l-13.916,0c-0.123,0 -0.241,-0.117 -0.241,-0.24l0,-0.117l1.08,-2.04l8.881,0c0.956,0 1.676,-0.48 2.039,-1.201l4.318,-7.799c0.242,-0.238 0.242,-0.361 0.242,-0.604c0,-0.714 -0.482,-1.193 -1.202,-1.193l-17.761,0l-1.076,-2.404l-3.961,0Zm7.2,19.201c-1.319,0 -2.402,1.079 -2.402,2.397c0,1.325 1.083,2.402 2.402,2.402c1.32,0 2.395,-1.077 2.395,-2.402c0,-1.318 -1.075,-2.397 -2.395,-2.397Z"/>
</svg>
