<svg viewBox="0 0 24 24" xmlns="http://www.w3.org/2000/svg">
    <title>Hart</title>
    <path d="M11.915,22.213c-0.255,0 -0.426,-0.085 -0.596,-0.256l-8.255,-8c-0.085,-0.085 -0.17,-0.17 -0.341,-0.34c-0.17,-0.17 -0.425,-0.426 -0.766,-0.851c-0.34,-0.426 -0.595,-0.851 -0.936,-1.277c-0.255,-0.425 -0.51,-1.021 -0.681,-1.617c-0.17,-0.595 -0.34,-1.276 -0.34,-1.872c0,-1.957 0.596,-3.489 1.702,-4.596c1.107,-1.106 2.724,-1.617 4.681,-1.617c0.511,0 1.106,0.085 1.702,0.256c0.596,0.17 1.106,0.425 1.617,0.766c0.511,0.34 0.936,0.595 1.277,0.936c0.34,0.255 0.681,0.595 1.021,0.936c0.34,-0.341 0.681,-0.596 1.021,-0.936c0.341,-0.256 0.766,-0.596 1.277,-0.936c0.511,-0.341 1.021,-0.596 1.617,-0.766c0.596,-0.171 1.106,-0.256 1.702,-0.256c1.957,0 3.574,0.511 4.681,1.617c1.106,1.107 1.702,2.639 1.702,4.596c0,1.957 -1.021,3.915 -3.064,5.957l-8.255,8c-0.17,0.171 -0.341,0.256 -0.596,0.256l-0.17,0Z"/>
</svg>