<svg viewBox="0 0 24 24" xmlns="http://www.w3.org/2000/svg">
    <title>Vergrootglas</title>
    <path d="M9.29,18.71c2.294,0 4.359,-0.803 5.964,-2.18l7.341,7.226c0.115,0.115 0.344,0.23 0.573,0.23c0.23,0 0.459,-0.115 0.574,-0.23c0.344,-0.344 0.344,-0.917 0,-1.261l-7.226,-7.226c1.376,-1.606 2.179,-3.67 2.179,-5.964c0,-5.162 -4.243,-9.291 -9.405,-9.291c-5.046,0 -9.29,4.129 -9.29,9.291c0,5.161 4.244,9.405 9.29,9.405Zm0,-17.09c4.244,0 7.685,3.441 7.685,7.685c0,4.243 -3.441,7.684 -7.685,7.684c-4.129,0 -7.57,-3.441 -7.57,-7.684c0,-4.244 3.441,-7.685 7.57,-7.685Z"/>
</svg>
