<svg viewBox="0 0 24 24" xmlns="http://www.w3.org/2000/svg">
    <title>Praatwolk</title>
    <path d="M0,7c0,-1.061 0.421,-2.078 1.172,-2.828c0.75,-0.751 1.767,-1.172 2.828,-1.172c4.439,0 11.561,0 16,0c1.061,0 2.078,0.421 2.828,1.172c0.751,0.75 1.172,1.767 1.172,2.828c0,1.85 0,4.044 0,5.893c0,1.062 -0.421,2.079 -1.172,2.829c-0.75,0.75 -1.767,1.172 -2.828,1.172l0,4.106l-7,-4.106c0,0 -5.18,0 -9,0c-1.061,0 -2.078,-0.422 -2.828,-1.172c-0.751,-0.75 -1.172,-1.767 -1.172,-2.829c0,-1.849 0,-4.043 0,-5.893Z"/>
</svg>
