<svg viewBox="0 0 24 24" xmlns="http://www.w3.org/2000/svg">
    <title>Link</title>
    <path d="M12,0c-6.624,0 -12,5.376 -12,12c0,6.624 5.376,12 12,12c6.624,0 12,-5.376 12,-12c0,-6.624 -5.376,-12 -12,-12Zm6.032,9.864l-2.936,2.936c-0.32,0.32 -0.744,0.496 -1.192,0.496c-0.448,0 -0.872,-0.176 -1.192,-0.496l-0.112,-0.112l-0.32,0.312l0.12,0.112c0.656,0.656 0.656,1.728 0,2.384l-2.936,2.936c-0.32,0.32 -0.744,0.488 -1.192,0.488c-0.448,0 -0.872,-0.168 -1.192,-0.488l-1.112,-1.112c-0.656,-0.656 -0.656,-1.728 0,-2.384l2.936,-2.936c0.32,-0.32 0.744,-0.488 1.192,-0.488c0.448,0 0.872,0.168 1.192,0.488l0.112,0.12l0.32,-0.312l-0.12,-0.12c-0.656,-0.656 -0.656,-1.728 0,-2.384l2.936,-2.936c0.32,-0.312 0.744,-0.488 1.192,-0.488c0.448,0 0.872,0.176 1.192,0.488l1.112,1.112c0.656,0.656 0.656,1.728 0,2.384Zm-6.632,4.016l-0.568,0.568l-0.88,-0.88l0.568,-0.568l-0.112,-0.12c-0.08,-0.08 -0.192,-0.128 -0.312,-0.128c-0.12,0 -0.224,0.048 -0.312,0.128l-2.936,2.936c-0.168,0.176 -0.168,0.448 0,0.624l1.112,1.112c0.168,0.16 0.456,0.16 0.624,0l2.936,-2.936c0.168,-0.176 0.168,-0.456 0,-0.624l-0.12,-0.112Zm4.64,-6.632c-0.08,-0.08 -0.192,-0.128 -0.312,-0.128c-0.12,0 -0.232,0.048 -0.312,0.128l-2.936,2.936c-0.168,0.176 -0.168,0.456 0,0.624l0.12,0.112l0.864,-0.864l0.88,0.88l-0.864,0.872l0.112,0.112c0.168,0.168 0.456,0.168 0.624,0l2.936,-2.936c0.168,-0.168 0.168,-0.448 0,-0.624l-1.112,-1.112Z"/>
</svg>