<svg viewBox="0 0 24 24" xmlns="http://www.w3.org/2000/svg">
    <title>Email</title>
    <path d="M12,0c-6.628,0 -12,5.372 -12,12c0,6.628 5.372,12 12,12c6.628,0 12,-5.372 12,-12c0,-6.628 -5.372,-12 -12,-12Zm-6,6l12,0c0.216,0 0.422,0.047 0.614,0.131l-6.614,7.716l-6.614,-7.716c0.192,-0.084 0.398,-0.131 0.614,-0.131Zm-1.5,10.5l0,-9c0,-0.033 0,-0.061 0.005,-0.094l4.397,5.133l-4.35,4.35c-0.033,-0.126 -0.052,-0.258 -0.052,-0.389Zm13.5,1.5l-12,0c-0.131,0 -0.262,-0.019 -0.389,-0.052l4.27,-4.27l2.119,2.475l2.119,-2.475l4.27,4.27c-0.126,0.033 -0.258,0.052 -0.389,0.052Zm1.5,-1.5c0,0.131 -0.019,0.262 -0.052,0.389l-4.35,-4.35l4.397,-5.133c0.005,0.033 0.005,0.061 0.005,0.094l0,9Z"/>
</svg>