<svg viewBox="0 0 24 24" xmlns="http://www.w3.org/2000/svg">
    <title>Flickr</title>
    <path d="M12,0c-6.627,0 -12,5.373 -12,12c0,6.627 5.373,12 12,12c6.627,0 12,-5.373 12,-12c0,-6.629 -5.373,-12 -12,-12Zm-4.416,15.006c-1.682,0 -3.044,-1.362 -3.044,-3.044c0,-1.681 1.362,-3.043 3.044,-3.043c1.682,0 3.043,1.362 3.043,3.043c0,1.682 -1.362,3.044 -3.043,3.044Zm8.863,0c-1.681,0 -3.043,-1.362 -3.043,-3.044c0,-1.681 1.362,-3.043 3.043,-3.043c1.682,0 3.044,1.362 3.044,3.043c0,1.682 -1.362,3.044 -3.044,3.044Z"/>
</svg>