<svg viewBox="0 0 24 24" xmlns="http://www.w3.org/2000/svg">
    <title>Linkedin</title>
    <path d="M12,-0.001c6.623,0 12,5.377 12,12c0,6.623 -5.377,12 -12,12c-6.623,0 -12,-5.377 -12,-12c0,-6.623 5.377,-12 12,-12Zm7.17,17.913l0,-4.947c0,-2.65 -1.415,-3.883 -3.302,-3.883c-1.524,0 -2.204,0.839 -2.585,1.425l0,0.029l-0.019,0c0.005,-0.01 0.013,-0.019 0.019,-0.029l0,-1.222l-2.869,0c0.039,0.809 0,8.627 0,8.627l2.869,0l0,-4.818c0,-0.259 0.019,-0.515 0.095,-0.699c0.208,-0.516 0.678,-1.049 1.471,-1.049c1.038,0 1.453,0.791 1.453,1.95l0,4.616l2.868,0Zm-10.342,-8.627l-2.867,0l0,8.627l2.867,0l0,-8.627Zm-1.415,-4.159c-0.981,0 -1.623,0.645 -1.623,1.491c0,0.828 0.623,1.491 1.586,1.491l0.018,0c1.001,0 1.623,-0.663 1.623,-1.491c-0.019,-0.846 -0.622,-1.491 -1.604,-1.491Z"/>
</svg>