<svg viewBox="0 0 24 24" xmlns="http://www.w3.org/2000/svg">
    <title>Whatsapp</title>
    <path d="M12 0C18.6 0 24 5.4 24 12 24 18.6 18.6 24 12 24 5.4 24 0 18.6 0 12 0 5.4 5.4 0 12 0ZM12 4.1C7.6 4.1 4 7.6 4 12 4 13.7 4.6 15.3 5.5 16.7L4.5 19.6 7.6 18.6C8.8 19.5 10.4 19.9 12 19.9 16.4 19.9 20 16.4 20 12 20 7.6 16.4 4.1 12 4.1ZM16.7 15.3C16.5 15.8 15.5 16.3 15.1 16.4 14.7 16.4 14.7 16.7 12.3 15.8 9.9 14.9 8.4 12.5 8.3 12.3 8.2 12.2 7.3 11.1 7.3 9.9 7.3 8.8 7.9 8.2 8.1 8 8.4 7.8 8.6 7.7 8.8 7.7 8.9 7.7 9.1 7.7 9.2 7.7 9.3 7.7 9.5 7.7 9.7 8.1 9.9 8.6 10.4 9.7 10.4 9.9 10.5 10 10.5 10.1 10.4 10.3 10.4 10.4 10.3 10.5 10.2 10.6 10.1 10.8 10 10.9 9.9 11 9.8 11.2 9.6 11.3 9.8 11.5 9.9 11.7 10.4 12.5 11.1 13.1 12 13.9 12.7 14.1 13 14.3 13.2 14.4 13.3 14.4 13.5 14.2 13.6 14.1 14 13.6 14.2 13.3 14.3 13.1 14.5 13.1 14.7 13.2 14.9 13.3 16.1 13.8 16.3 13.9 16.5 14.1 16.7 14.1 16.8 14.2 16.8 14.3 16.8 14.7 16.7 15.3Z"/>
</svg>