<svg viewBox="0 0 24 24" xmlns="http://www.w3.org/2000/svg">
    <title>Youtube</title>
    <path d="M12,0c-6.627,0 -12,5.373 -12,12c0,6.627 5.373,12 12,12c6.627,0 12,-5.373 12,-12c0,-6.627 -5.373,-12 -12,-12Zm8.176,16.005c-0.208,0.902 -0.945,1.566 -1.832,1.665c-2.101,0.235 -4.227,0.236 -6.344,0.235c-2.118,0.001 -4.245,0 -6.346,-0.235c-0.887,-0.099 -1.624,-0.763 -1.831,-1.665c-0.296,-1.283 -0.296,-2.684 -0.296,-4.005c0,-1.321 0.004,-2.722 0.299,-4.005c0.207,-0.902 0.944,-1.566 1.831,-1.666c2.102,-0.234 4.228,-0.236 6.346,-0.234c2.117,-0.002 4.244,0 6.345,0.234c0.887,0.1 1.624,0.764 1.831,1.666c0.296,1.283 0.293,2.684 0.293,4.005c0,1.321 0,2.722 -0.296,4.005Zm-10.363,-1.375c1.801,-0.934 3.586,-1.859 5.387,-2.793c-1.806,-0.943 -3.591,-1.873 -5.387,-2.811c0,1.875 0,3.73 0,5.604Z"/>
</svg>