<svg viewBox="0 0 24 24" xmlns="http://www.w3.org/2000/svg">
    <title>Facebook</title>
    <path d="M17.996,-0.001l-3.121,0c-3.495,0 -5.742,2.31 -5.742,5.899l0,2.747l-3.121,0c-0.281,0 -0.5,0.218 -0.5,0.468l0,3.963c0,0.25 0.219,0.469 0.5,0.469l3.121,0l0,9.956c0,0.281 0.218,0.499 0.499,0.499l4.057,0c0.281,0 0.5,-0.218 0.5,-0.499l0,-9.956l3.651,0c0.281,0 0.5,-0.219 0.5,-0.469l0,-3.963c0,-0.125 -0.063,-0.25 -0.156,-0.344c-0.063,-0.093 -0.188,-0.124 -0.344,-0.124l-3.651,0l0,-2.31c0,-1.124 0.281,-1.685 1.716,-1.685l2.091,0c0.281,0 0.5,-0.219 0.5,-0.5l0,-3.651c0,-0.281 -0.219,-0.5 -0.5,-0.5Z"/>
</svg>