<svg viewBox="0 0 24 24" xmlns="http://www.w3.org/2000/svg">
    <title>Flickr</title>
    <path d="M19.5,0c1.2,0 2.3,0.4 3.2,1.3c0.9,0.9 1.3,2 1.3,3.2l0,15c0,1.2 -0.4,2.3 -1.3,3.2c-0.9,0.9 -2,1.3 -3.2,1.3l-15,0c-1.2,0 -2.3,-0.4 -3.2,-1.3c-0.9,-0.9 -1.3,-2 -1.3,-3.2l0,-15c0,-1.2 0.4,-2.3 1.3,-3.2c0.9,-0.9 2,-1.3 3.2,-1.3l15,0Zm-8.6,12c0,-0.9 -0.3,-1.7 -1,-2.3c-0.6,-0.7 -1.4,-1 -2.3,-1c-0.9,0 -1.7,0.3 -2.4,1c-0.6,0.6 -0.9,1.4 -0.9,2.3c0,0.9 0.3,1.7 0.9,2.3c0.7,0.7 1.5,1 2.4,1c0.9,0 1.7,-0.3 2.3,-1c0.7,-0.6 1,-1.4 1,-2.3Zm8.8,0c0,-0.9 -0.3,-1.7 -0.9,-2.3c-0.7,-0.7 -1.5,-1 -2.4,-1c-0.9,0 -1.7,0.3 -2.3,1c-0.7,0.6 -1,1.4 -1,2.3c0,0.9 0.3,1.7 1,2.3c0.6,0.7 1.4,1 2.3,1c0.9,0 1.7,-0.3 2.4,-1c0.6,-0.6 0.9,-1.4 0.9,-2.3Z"/>
</svg>