<svg viewBox="0 0 24 24" xmlns="http://www.w3.org/2000/svg">
    <title>Instagram</title>
    <path d="M21.3,20.3l0,-10.1l-2.1,0c0.2,0.6 0.3,1.3 0.3,2c0,1.3 -0.3,2.5 -1,3.6c-0.7,1.1 -1.6,2 -2.7,2.7c-1.2,0.6 -2.4,0.9 -3.8,0.9c-2,0 -3.8,-0.7 -5.2,-2.1c-1.5,-1.4 -2.2,-3.1 -2.2,-5.1c0,-0.7 0.1,-1.4 0.3,-2l-2.2,0l0,10.1c0,0.3 0.1,0.5 0.2,0.7c0.2,0.1 0.5,0.2 0.7,0.2l16.7,0c0.3,0 0.5,-0.1 0.7,-0.2c0.2,-0.2 0.3,-0.4 0.3,-0.7Zm-4.5,-8.3c0,-1.3 -0.4,-2.4 -1.4,-3.4c-0.9,-0.9 -2.1,-1.3 -3.4,-1.3c-1.3,0 -2.4,0.4 -3.4,1.3c-0.9,1 -1.4,2.1 -1.4,3.4c0,1.2 0.5,2.3 1.4,3.3c1,0.9 2.1,1.3 3.4,1.3c1.3,0 2.5,-0.4 3.4,-1.3c1,-1 1.4,-2.1 1.4,-3.3Zm4.5,-5.7l0,-2.5c0,-0.3 -0.1,-0.6 -0.3,-0.8c-0.2,-0.2 -0.5,-0.3 -0.8,-0.3l-2.7,0c-0.3,0 -0.6,0.1 -0.8,0.3c-0.2,0.2 -0.3,0.5 -0.3,0.8l0,2.5c0,0.3 0.1,0.6 0.3,0.8c0.2,0.2 0.5,0.3 0.8,0.3l2.7,0c0.3,0 0.6,-0.1 0.8,-0.3c0.2,-0.2 0.3,-0.5 0.3,-0.8Zm2.7,-3.2l0,17.8c0,0.9 -0.3,1.6 -0.9,2.2c-0.6,0.6 -1.3,0.9 -2.2,0.9l-17.8,0c-0.9,0 -1.6,-0.3 -2.2,-0.9c-0.6,-0.6 -0.9,-1.3 -0.9,-2.2l0,-17.8c0,-0.9 0.3,-1.6 0.9,-2.2c0.6,-0.6 1.3,-0.9 2.2,-0.9l17.8,0c0.9,0 1.6,0.3 2.2,0.9c0.6,0.6 0.9,1.3 0.9,2.2Z"/>
</svg>