<svg viewBox="0 0 24 24" xmlns="http://www.w3.org/2000/svg">
    <title>Linkedin</title>
    <path d="M5.453,7.985l0,15.484l-5.156,0l0,-15.484l5.156,0Zm0.328,-4.782c0.011,0.76 -0.252,1.396 -0.789,1.906c-0.537,0.51 -1.242,0.765 -2.117,0.766l-0.031,0c-0.854,0 -1.542,-0.256 -2.063,-0.766c-0.521,-0.511 -0.782,-1.146 -0.781,-1.906c0,-0.771 0.268,-1.409 0.805,-1.914c0.537,-0.506 1.237,-0.758 2.102,-0.758c0.865,0 1.557,0.252 2.078,0.758c0.521,0.505 0.786,1.143 0.797,1.914l-0.001,0Zm18.219,11.391l0,8.875l-5.141,0l0,-8.281c0,-1.094 -0.211,-1.951 -0.633,-2.57c-0.422,-0.62 -1.081,-0.93 -1.977,-0.93c-0.656,0 -1.205,0.179 -1.648,0.539c-0.443,0.359 -0.773,0.804 -0.992,1.336c-0.115,0.312 -0.172,0.734 -0.172,1.266l0,8.641l-5.141,0c0.021,-4.156 0.031,-7.526 0.031,-10.109c0,-2.584 -0.005,-4.125 -0.016,-4.625l-0.016,-0.75l5.141,0l0,2.25l-0.031,0c0.209,-0.334 0.422,-0.625 0.641,-0.875c0.219,-0.25 0.513,-0.521 0.883,-0.812c0.37,-0.292 0.823,-0.518 1.359,-0.68c0.536,-0.162 1.132,-0.243 1.789,-0.242c1.781,0 3.214,0.59 4.297,1.773c1.083,1.181 1.625,2.913 1.625,5.195l0.001,-0.001Z"/>
</svg>