<svg viewBox="0 0 24 24" xmlns="http://www.w3.org/2000/svg">
    <title>Twitter</title>
    <path d="M23.998,4.502c-0.937,0.375 -1.875,0.75 -2.812,0.75c0.937,-0.562 1.875,-1.499 2.062,-2.624c-0.937,0.562 -1.875,0.937 -3,1.125c-0.937,-0.938 -2.249,-1.5 -3.562,-1.5c-2.812,0 -5.062,2.249 -5.062,4.874c0,0.375 0.188,0.75 0.188,1.125c-4.125,-0.187 -7.687,-2.062 -10.125,-5.062c-0.375,0.75 -0.75,1.5 -0.75,2.437c0,1.688 0.938,3.188 2.25,4.125c-0.75,0 -1.5,-0.187 -2.25,-0.562c0,2.437 1.688,4.312 3.938,4.874c-0.375,0 -0.75,0.188 -1.313,0.188c-0.187,0 -0.562,-0.188 -0.937,-0.188c0.75,2.063 2.437,3.375 4.687,3.375c-1.687,1.312 -3.75,2.25 -6.187,2.25c-0.375,0 -0.75,-0.188 -1.125,-0.188c2.25,1.5 4.687,2.25 7.499,2.25c9.187,0 14.062,-7.499 14.062,-14.061l0,-0.563c0.937,-0.75 1.687,-1.5 2.437,-2.625Z"/>
</svg>