<svg viewBox="0 0 24 24" xmlns="http://www.w3.org/2000/svg">
    <title>Whatsapp</title>
    <path d="M24,11.7c0,6.433 -5.267,11.667 -11.767,11.667c-2.066,0 -4.033,-0.5 -5.7,-1.434l-6.533,2.067l2.133,-6.267c-1.066,-1.766 -1.7,-3.833 -1.7,-6.033c0,-6.467 5.267,-11.7 11.8,-11.7c6.5,0 11.767,5.233 11.767,11.7Zm-11.767,-9.833c-5.466,0 -9.933,4.4 -9.933,9.833c0,2.133 0.7,4.133 1.9,5.767l-1.233,3.633l3.8,-1.2c1.566,1.033 3.433,1.633 5.466,1.633c5.434,0 9.9,-4.433 9.9,-9.833c0,-5.433 -4.466,-9.833 -9.9,-9.833Zm5.934,12.533c-0.067,-0.133 -0.267,-0.2 -0.567,-0.367c-0.267,-0.133 -1.7,-0.833 -1.967,-0.9c-0.266,-0.1 -0.466,-0.166 -0.633,0.134c-0.2,0.266 -0.767,0.933 -0.933,1.133c-0.167,0.167 -0.334,0.2 -0.6,0.067c-0.3,-0.167 -1.234,-0.467 -2.334,-1.434c-0.866,-0.766 -1.433,-1.7 -1.6,-2c-0.166,-0.266 -0.033,-0.433 0.1,-0.566c0.134,-0.134 0.3,-0.334 0.434,-0.5c0.166,-0.167 0.2,-0.3 0.3,-0.467c0.1,-0.2 0.066,-0.367 -0.034,-0.533c-0.066,-0.134 -0.633,-1.534 -0.866,-2.1c-0.267,-0.6 -0.5,-0.5 -0.667,-0.5c-0.167,0 -0.367,0 -0.533,0c-0.2,0 -0.534,0.066 -0.8,0.333c-0.234,0.3 -1,1 -1,2.4c0,1.4 1.033,2.767 1.166,2.967c0.167,0.2 2,3.166 4.967,4.333c2.933,1.133 2.933,0.767 3.433,0.7c0.534,-0.033 1.734,-0.7 1.967,-1.367c0.233,-0.666 0.233,-1.233 0.167,-1.333Z"/>
</svg>