<svg xmlns="http://www.w3.org/2000/svg" viewBox="0 0 32 32">
    <title>Youtube logo</title>
    <path d="M22.9 16c0-0.4-0.2-0.8-0.5-1l-9.1-5.7c-0.4-0.2-0.8-0.2-1.2 0 -0.4 0.2-0.6 0.5-0.6 1v11.4c0 0.5 0.2 0.8 0.6 1 0.2 0.1 0.4 0.1 0.6 0.1 0.2 0 0.4-0.1 0.6-0.2l9.1-5.7C22.7 16.8 22.9 16.4 22.9 16L22.9 16zM32 16c0 1.1 0 2 0 2.7 0 0.6-0.1 1.5-0.2 2.4 -0.1 1-0.2 1.9-0.4 2.6 -0.2 0.9-0.6 1.6-1.2 2.2 -0.6 0.6-1.4 0.9-2.2 1 -2.6 0.3-6.6 0.4-12 0.4s-9.3-0.1-12-0.4c-0.8-0.1-1.6-0.4-2.2-1 -0.6-0.6-1-1.3-1.2-2.2 -0.2-0.8-0.3-1.7-0.4-2.6s-0.1-1.8-0.2-2.4S0 17.1 0 16s0-2 0-2.7c0-0.6 0.1-1.5 0.2-2.4 0.1-1 0.2-1.9 0.4-2.6 0.2-0.9 0.6-1.6 1.2-2.2 0.6-0.6 1.4-0.9 2.2-1C6.7 4.7 10.7 4.6 16 4.6s9.3 0.1 12 0.4c0.8 0.1 1.6 0.4 2.2 1 0.6 0.6 1.1 1.3 1.2 2.2 0.2 0.8 0.3 1.7 0.4 2.6 0.1 1 0.1 1.8 0.2 2.4C32 14 32 14.9 32 16z"/>
</svg>