<svg viewBox="0 0 24 24" xmlns="http://www.w3.org/2000/svg">
    <title>Youtube</title>
    <path d="M17.162,11.987c0,-0.299 -0.15,-0.599 -0.374,-0.749l-6.816,-4.269c-0.299,-0.149 -0.599,-0.149 -0.899,0c-0.299,0.15 -0.449,0.375 -0.449,0.749l0,8.539c0,0.374 0.15,0.599 0.449,0.748c0.15,0.075 0.3,0.075 0.45,0.075c0.15,0 0.299,-0.075 0.449,-0.149l6.816,-4.269c0.224,-0.075 0.374,-0.375 0.374,-0.675Zm6.816,0c0,0.824 0,1.498 0,2.023c0,0.449 -0.075,1.123 -0.15,1.797c-0.075,0.749 -0.15,1.423 -0.3,1.947c-0.149,0.675 -0.449,1.199 -0.898,1.648c-0.45,0.45 -1.049,0.674 -1.648,0.749c-1.947,0.225 -4.943,0.3 -8.988,0.3c-4.044,0 -6.965,-0.075 -8.987,-0.3c-0.599,-0.075 -1.198,-0.299 -1.648,-0.749c-0.449,-0.449 -0.749,-0.973 -0.899,-1.648c-0.149,-0.599 -0.224,-1.273 -0.299,-1.947c-0.075,-0.674 -0.075,-1.348 -0.15,-1.797c-0.075,-0.45 0,-1.199 0,-2.023c0,-0.823 0,-1.497 0,-2.022c0,-0.449 0.075,-1.123 0.15,-1.797c0.075,-0.749 0.15,-1.423 0.299,-1.948c0.15,-0.674 0.45,-1.198 0.899,-1.647c0.45,-0.45 1.049,-0.674 1.648,-0.749c2.022,-0.3 5.018,-0.375 8.987,-0.375c3.97,0 6.966,0.075 8.988,0.3c0.599,0.075 1.198,0.299 1.648,0.749c0.449,0.449 0.824,0.973 0.898,1.648c0.15,0.599 0.225,1.273 0.3,1.947c0.075,0.749 0.075,1.348 0.15,1.797c0,0.6 0,1.274 0,2.097Z"/>
</svg>